<svg width="100" height="36" viewBox="0 0 100 36" fill="none" xmlns="http://www.w3.org/2000/svg">
<rect x="0.5" y="0.5" width="99" height="35" rx="17.5" fill="white" stroke="#ED1C24"/>
<path d="M19.02 17.484V16H25.81V17.484H19.02ZM19.02 20.144V18.646H25.81V20.144H19.02ZM35.5544 17.106V19.57H37.4164V17.106H35.5544ZM32.0824 14.25V15.706H40.9864V14.25H32.0824ZM32.0824 11.716V15.034H33.9304V13.186H40.8744V11.716H32.0824ZM30.6264 16.378V17.848H42.3444V16.378H30.6264ZM31.9704 18.674V20.046H39.0964V20.718H31.9844V23.14H33.8184V22.006H40.9304V18.674H31.9704ZM31.9844 22.762V24.162H41.2664V22.762H31.9844ZM52.4933 11.268V24.274H54.3553V11.268H52.4933ZM50.4633 15.944V17.442H52.8713V15.944H50.4633ZM43.9533 19.738V21.278H45.0173C47.1733 21.278 48.9093 21.208 50.8273 20.886L50.6593 19.374C48.7833 19.696 47.1173 19.738 45.0173 19.738H43.9533ZM43.9253 12.374V13.858H47.9293V15.776H43.9533V20.2H45.8013V17.246H49.7633V12.374H43.9253ZM56.3982 21.236V22.748H68.1302V21.236H56.3982ZM61.3122 18.464V21.6H63.1742V18.464H61.3122ZM57.6302 12.108V18.856H66.8562V12.108H65.0082V14.096H59.4782V12.108H57.6302ZM59.4782 15.552H65.0082V17.372H59.4782V15.552ZM78.1951 11.282V24.246H80.0711V11.282H78.1951ZM74.3731 12.626V12.962C74.3731 16.434 73.0291 18.786 69.3051 20.578L70.2711 22.062C74.8771 19.836 76.2211 16.588 76.2211 12.626H74.3731ZM69.9911 12.626V14.096H75.2551V12.626H69.9911Z" fill="#ED1C24"/>
</svg>
